<svg width="12" height="12" viewBox="0 0 12 12" fill="none" xmlns="http://www.w3.org/2000/svg"><path fill-rule="evenodd" clip-rule="evenodd" d="M5.66 1.04A4.976 4.976 0 001.03 6a4.977 4.977 0 004.983 4.971 4.984 4.984 0 004.73-3.408 4.291 4.291 0 01-1.638.323A4.29 4.29 0 014.81 3.6c0-.96.316-1.845.85-2.56zM0 6c0-3.314 2.692-6 6.013-6 .309 0 .612.023.91.068a.515.515 0 01.23.92A3.25 3.25 0 005.841 3.6a3.26 3.26 0 003.264 3.257c.78 0 1.494-.272 2.055-.726a.516.516 0 01.838.448A6.008 6.008 0 016.013 12C2.692 12 0 9.314 0 6z" fill="#fff"/></svg>