<svg display="none" xmlns="http://www.w3.org/2000/svg" xmlns:xlink="http://www.w3.org/1999/xlink">

  <symbol id="logo" viewBox="0 0 128 39">
    <path fill-rule="evenodd" clip-rule="evenodd" d="M31.5522 26.68C32.2456 27.0267 33.0589 27.2 33.9922 27.2C34.9389 27.2 35.7522 27.0267 36.4322 26.68C37.1122 26.32 37.6322 25.82 37.9922 25.18C38.3656 24.5267 38.5522 23.76 38.5522 22.88V16.5C38.5522 15.6333 38.3656 14.88 37.9922 14.24C37.6322 13.5867 37.1122 13.0867 36.4322 12.74C35.7522 12.38 34.9389 12.2 33.9922 12.2C33.0589 12.2 32.2456 12.38 31.5522 12.74C30.8722 13.0867 30.3456 13.5867 29.9722 14.24C29.6122 14.88 29.4322 15.64 29.4322 16.52V22.88C29.4322 23.76 29.6122 24.5267 29.9722 25.18C30.3456 25.82 30.8722 26.32 31.5522 26.68ZM35.5322 24.46C35.1856 24.82 34.6722 25 33.9922 25C33.3256 25 32.8122 24.82 32.4522 24.46C32.1056 24.0867 31.9322 23.56 31.9322 22.88V16.52C31.9322 15.8267 32.1056 15.3 32.4522 14.94C32.7989 14.58 33.3122 14.4 33.9922 14.4C34.6722 14.4 35.1856 14.58 35.5322 14.94C35.8789 15.3 36.0522 15.8267 36.0522 16.52V22.88C36.0522 23.56 35.8789 24.0867 35.5322 24.46Z" />
    <path d="M18.0601 12.4V27H26.7601V24.68H20.5601V12.4H18.0601Z" />
    <path fill-rule="evenodd" clip-rule="evenodd" d="M41.5044 27V12.4H46.1244C47.0978 12.4 47.9378 12.58 48.6444 12.94C49.3644 13.3 49.9244 13.8067 50.3244 14.46C50.7244 15.1 50.9244 15.86 50.9244 16.74C50.9244 17.7 50.6778 18.5467 50.1844 19.28C49.7044 20.0133 49.0511 20.5333 48.2244 20.84L51.1244 27H48.3244L45.7844 21.2H44.0044V27H41.5044ZM44.0044 19H46.1244C46.8311 19 47.3844 18.8067 47.7844 18.42C48.1844 18.0333 48.3844 17.5 48.3844 16.82C48.3844 16.1267 48.1844 15.5867 47.7844 15.2C47.3844 14.8 46.8311 14.6 46.1244 14.6H44.0044V19Z" />
    <path d="M55.4166 26.7C56.15 27.0333 57.0166 27.2 58.0166 27.2C58.99 27.2 59.8366 27.0267 60.5566 26.68C61.2766 26.3333 61.8366 25.8467 62.2366 25.22C62.6366 24.58 62.8366 23.8467 62.8366 23.02C62.8366 21.9133 62.53 20.9867 61.9166 20.24C61.3033 19.48 60.4166 18.9533 59.2566 18.66L57.5166 18.18C56.9966 18.0333 56.5966 17.7867 56.3166 17.44C56.05 17.08 55.9166 16.6467 55.9166 16.14C55.9166 15.58 56.0966 15.1467 56.4566 14.84C56.8166 14.5333 57.3233 14.38 57.9766 14.38C58.6566 14.38 59.1833 14.5467 59.5566 14.88C59.93 15.2 60.1166 15.6467 60.1166 16.22H62.6166C62.6033 14.9933 62.1833 14.02 61.3566 13.3C60.53 12.5667 59.41 12.2 57.9966 12.2C57.0633 12.2 56.25 12.3667 55.5566 12.7C54.8766 13.0333 54.35 13.5067 53.9766 14.12C53.6033 14.7333 53.4166 15.4533 53.4166 16.28C53.4166 17.36 53.7233 18.28 54.3366 19.04C54.9633 19.8 55.85 20.3267 56.9966 20.62L58.6766 21.08C59.21 21.2133 59.6166 21.4667 59.8966 21.84C60.19 22.2 60.3366 22.6267 60.3366 23.12C60.3366 23.7067 60.13 24.1667 59.7166 24.5C59.3166 24.8333 58.7566 25 58.0366 25C57.29 25 56.6966 24.8333 56.2566 24.5C55.83 24.1533 55.6166 23.68 55.6166 23.08H53.1166C53.13 23.92 53.33 24.6533 53.7166 25.28C54.1166 25.8933 54.6833 26.3667 55.4166 26.7Z" />
    <path fill-rule="evenodd" clip-rule="evenodd" d="M64.6688 27L68.3488 12.4H71.5688L75.2688 27H72.7088L71.9088 23.46H68.0288L67.2288 27H64.6688ZM71.4488 21.42L70.5688 17.5C70.4221 16.8467 70.2955 16.26 70.1888 15.74C70.0821 15.2067 70.0088 14.82 69.9688 14.58C69.9288 14.82 69.8555 15.2067 69.7488 15.74C69.6555 16.26 69.5288 16.84 69.3688 17.48L68.4888 21.42H71.4488Z"/>
    <path d="M78.021 12.4V27H86.721V24.68H80.521V12.4H78.021Z"/>
    <path d="M89.7532 27V24.8H92.6932V14.6H89.7532V12.4H98.1532V14.6H95.2132V24.8H98.1532V27H89.7532Z"/>
    <path fill-rule="evenodd" clip-rule="evenodd" d="M103.505 26.68C104.199 27.0267 105.012 27.2 105.945 27.2C106.892 27.2 107.705 27.0267 108.385 26.68C109.065 26.32 109.585 25.82 109.945 25.18C110.319 24.5267 110.505 23.76 110.505 22.88V16.5C110.505 15.6333 110.319 14.88 109.945 14.24C109.585 13.5867 109.065 13.0867 108.385 12.74C107.705 12.38 106.892 12.2 105.945 12.2C105.012 12.2 104.199 12.38 103.505 12.74C102.825 13.0867 102.299 13.5867 101.925 14.24C101.565 14.88 101.385 15.64 101.385 16.52V22.88C101.385 23.76 101.565 24.5267 101.925 25.18C102.299 25.82 102.825 26.32 103.505 26.68ZM107.485 24.46C107.139 24.82 106.625 25 105.945 25C105.279 25 104.765 24.82 104.405 24.46C104.059 24.0867 103.885 23.56 103.885 22.88V16.52C103.885 15.8267 104.059 15.3 104.405 14.94C104.752 14.58 105.265 14.4 105.945 14.4C106.625 14.4 107.139 14.58 107.485 14.94C107.832 15.3 108.005 15.8267 108.005 16.52V22.88C108.005 23.56 107.832 24.0867 107.485 24.46Z" />
    <path fill-rule="evenodd" clip-rule="evenodd" d="M0 39V0H128V39H0ZM2 2H126V37H2V2Z"/>
  </symbol>

  <symbol id="playstore-ic" viewBox="0 0 24 24">
    <path d="M3 20.5V3.5C3 2.91 3.34 2.39 3.84 2.15L13.69 12L3.84 21.85C3.34 21.6 3 21.09 3 20.5ZM16.81 15.12L6.05 21.34L14.54 12.85L16.81 15.12ZM20.16 10.81C20.5 11.08 20.75 11.5 20.75 12C20.75 12.5 20.53 12.9 20.18 13.18L17.89 14.5L15.39 12L17.89 9.5L20.16 10.81ZM6.05 2.66L16.81 8.88L14.54 11.15L6.05 2.66Z" />
  </symbol>

  <symbol id="twitter-ic" viewBox="0 0 24 24">
    <path d="M22.46 6C21.69 6.35 20.86 6.58 20 6.69C20.88 6.16 21.56 5.32 21.88 4.31C21.05 4.81 20.13 5.16 19.16 5.36C18.37 4.5 17.26 4 16 4C13.65 4 11.73 5.92 11.73 8.29C11.73 8.63 11.77 8.96 11.84 9.27C8.28004 9.09 5.11004 7.38 3.00004 4.79C2.63004 5.42 2.42004 6.16 2.42004 6.94C2.42004 8.43 3.17004 9.75 4.33004 10.5C3.62004 10.5 2.96004 10.3 2.38004 10C2.38004 10 2.38004 10 2.38004 10.03C2.38004 12.11 3.86004 13.85 5.82004 14.24C5.46004 14.34 5.08004 14.39 4.69004 14.39C4.42004 14.39 4.15004 14.36 3.89004 14.31C4.43004 16 6.00004 17.26 7.89004 17.29C6.43004 18.45 4.58004 19.13 2.56004 19.13C2.22004 19.13 1.88004 19.11 1.54004 19.07C3.44004 20.29 5.70004 21 8.12004 21C16 21 20.33 14.46 20.33 8.79C20.33 8.6 20.33 8.42 20.32 8.23C21.16 7.63 21.88 6.87 22.46 6Z" />
  </symbol>

  <symbol id="email-ic" viewBox="0 0 24 24">
    <path d="M20 8L12 13L4 8V6L12 11L20 6M20 4H4C2.89 4 2 4.89 2 6V18C2 18.5304 2.21071 19.0391 2.58579 19.4142C2.96086 19.7893 3.46957 20 4 20H20C20.5304 20 21.0391 19.7893 21.4142 19.4142C21.7893 19.0391 22 18.5304 22 18V6C22 4.89 21.1 4 20 4Z" />
  </symbol>

  <symbol id="rss-ic" viewBox="0 0 24 24">
    <path d="M6.18 15.64C6.75817 15.64 7.31266 15.8697 7.72149 16.2785C8.13032 16.6873 8.36 17.2418 8.36 17.82C8.36 19 7.38 20 6.18 20C5 20 4 19 4 17.82C4 17.2418 4.22968 16.6873 4.63851 16.2785C5.04734 15.8697 5.60183 15.64 6.18 15.64ZM4 4.44C8.12677 4.44 12.0845 6.07935 15.0026 8.99742C17.9206 11.9155 19.56 15.8732 19.56 20H16.73C16.73 18.3283 16.4007 16.6729 15.761 15.1284C15.1212 13.584 14.1836 12.1806 13.0015 10.9985C11.8194 9.81644 10.416 8.87876 8.87156 8.23901C7.32709 7.59927 5.67173 7.27 4 7.27V4.44ZM4 10.1C6.62564 10.1 9.14375 11.143 11.0004 12.9996C12.857 14.8563 13.9 17.3744 13.9 20H11.07C11.07 18.1249 10.3251 16.3266 8.99924 15.0008C7.67336 13.6749 5.87508 12.93 4 12.93V10.1Z" />
  </symbol>

  <symbol id="pinterest-ic" viewBox="0 0 24 24">
    <path fill-rule="evenodd" clip-rule="evenodd" d="M7.827 21.089C4.389 19.507 2 16.03 2 12C2 6.481 6.481 2 12 2C17.519 2 22 6.481 22 12C22 17.519 17.519 22 12 22C11.219 22 10.459 21.91 9.73 21.741L10.396 18.815C10.911 18.936 11.448 19 12 19C15.863 19 19 15.863 19 12C19 8.137 15.863 5 12 5C8.137 5 5 8.137 5 12C5 12.611 5.079 13.204 5.226 13.769C5.383 14.37 5.617 14.939 5.918 15.466C6.192 15.945 6.803 16.112 7.282 15.838C7.762 15.564 7.928 14.953 7.655 14.474C7.44 14.098 7.273 13.692 7.161 13.264C7.056 12.86 7 12.437 7 12C7 9.24 9.24 7 12 7C14.76 7 17 9.24 17 12C17 14.76 14.76 17 12 17C11.601 17 11.212 16.953 10.84 16.865L11.91 12.167C12.485 11.907 12.885 11.328 12.885 10.657C12.885 9.742 12.143 9 11.228 9C10.314 9 9.572 9.742 9.572 10.657C9.572 11.063 9.718 11.434 9.96 11.723L7.827 21.089Z" />
  </symbol>

  <symbol id="telegram-ic" viewBox="0 0 24 24">
    <path fill-rule="evenodd" clip-rule="evenodd" d="M9.93427 14.4209C9.70302 14.8209 9.2222 15.0096 8.77398 14.8774C6.98089 14.3452 2.65704 13.0633 2.65704 13.0633C2.30661 12.9585 2.05212 12.662 2.00686 12.305C1.9624 11.9483 2.13674 11.5991 2.45103 11.4155C5.92181 9.38216 13.477 4.95775 16.6026 3.12828C16.8875 2.96067 17.2421 2.95719 17.5312 3.11852C17.8202 3.27984 17.9988 3.58087 17.9982 3.90711C17.9993 7.48154 18.0002 16.1227 17.9999 20.0928C18.0004 20.452 17.7843 20.778 17.4498 20.9231C17.1144 21.0678 16.7249 21.0049 16.4539 20.7628C16.4539 20.7628 13.1189 17.7706 11.7354 16.53C11.3902 16.2195 11.309 15.7171 11.5402 15.3172C12.2326 14.1196 13.5941 11.7648 13.5941 11.7648C13.8459 11.3293 13.6905 10.7751 13.2473 10.5278C12.804 10.2804 12.24 10.4331 11.9882 10.8685L9.93427 14.4209Z"/>
  </symbol>

  <symbol id="calendar-ic" viewBox="0 0 24 24">
    <path d="M19 19H5V8H19M16 1V3H8V1H6V3H5C3.89 3 3 3.89 3 5V19C3 19.5304 3.21071 20.0391 3.58579 20.4142C3.96086 20.7893 4.46957 21 5 21H19C19.5304 21 20.0391 20.7893 20.4142 20.4142C20.7893 20.0391 21 19.5304 21 19V5C21 3.89 20.1 3 19 3H18V1M17 12H12V17H17V12Z" />
  </symbol>

  <symbol id="message-ic" viewBox="0 0 24 24">
    <path d="M18 8H6V6H18V8ZM18 11H6V9H18V11ZM18 14H6V12H18V14ZM22 4C22 3.46957 21.7893 2.96086 21.4142 2.58579C21.0391 2.21071 20.5304 2 20 2H4C3.46957 2 2.96086 2.21071 2.58579 2.58579C2.21071 2.96086 2 3.46957 2 4V16C2 16.5304 2.21071 17.0391 2.58579 17.4142C2.96086 17.7893 3.46957 18 4 18H18L22 22V4Z" />
  </symbol>

  <symbol id="landscape-ic" viewBox="0 0 40 40">
    <path d="M31.6667 28.3334H8.33333V11.6667H31.6667M31.6667 8.33337H8.33333C7.44928 8.33337 6.60143 8.68456 5.97631 9.30968C5.35119 9.93481 5 10.7827 5 11.6667V28.3334C5 29.2174 5.35119 30.0653 5.97631 30.6904C6.60143 31.3155 7.44928 31.6667 8.33333 31.6667H31.6667C32.5507 31.6667 33.3986 31.3155 34.0237 30.6904C34.6488 30.0653 35 29.2174 35 28.3334V11.6667C35 9.81671 33.5 8.33337 31.6667 8.33337Z" />
  </symbol>

  <symbol id="portrait-ic" viewBox="0 0 40 40">
    <path d="M28.3333 31.6667H11.6666V8.33333H28.3333M28.3333 5H11.6666C10.7825 5 9.93468 5.35119 9.30956 5.97631C8.68444 6.60143 8.33325 7.44928 8.33325 8.33333V31.6667C8.33325 32.5507 8.68444 33.3986 9.30956 34.0237C9.93468 34.6488 10.7825 35 11.6666 35H28.3333C29.2173 35 30.0652 34.6488 30.6903 34.0237C31.3154 33.3986 31.6666 32.5507 31.6666 31.6667V8.33333C31.6666 6.48333 30.1666 5 28.3333 5Z" />
  </symbol>

  <symbol id="dropdown-ic" viewBox="0 0 15 9">
    <path fill-rule="evenodd" clip-rule="evenodd" d="M0.265202 0.821725C0.639805 0.415904 1.27246 0.390598 1.67829 0.765202L7.5 6.1391L13.3217 0.765202C13.7275 0.390598 14.3602 0.415904 14.7348 0.821725C15.1094 1.22755 15.0841 1.8602 14.6783 2.23481L8.17828 8.23481C7.79522 8.5884 7.20479 8.5884 6.82172 8.23481L0.321725 2.23481C-0.0840959 1.8602 -0.109402 1.22755 0.265202 0.821725Z"/>
  </symbol>

  <symbol id="whatsapp-ic" viewBox="0 0 24 24">
    <path fill-rule="evenodd" clip-rule="evenodd" d="M12.04 2C6.58 2 2.13 6.45 2.13 11.91C2.13 13.66 2.59 15.36 3.45 16.86C3.45 16.86 3.088 18.189 2.732 19.495C2.591 20.012 2.737 20.565 3.114 20.945C3.491 21.326 4.043 21.476 4.561 21.34C5.91 20.985 7.3 20.62 7.3 20.62C8.75001 21.41 10.38 21.83 12.04 21.83C17.5 21.83 21.95 17.38 21.95 11.92C21.95 9.27 20.92 6.78 19.05 4.91C17.18 3.03 14.69 2 12.04 2ZM8.53 7.33C8.37 7.33 8.1 7.39 7.87 7.64C7.65 7.89 7 8.5 7 9.71C7 10.93 7.89 12.1 8 12.27C8.14 12.44 9.76 14.94 12.25 16C12.84 16.27 13.3 16.42 13.66 16.53C14.25 16.72 14.79 16.69 15.22 16.63C15.7 16.56 16.68 16.03 16.89 15.45C17.1 14.87 17.1 14.38 17.04 14.27C16.97 14.17 16.81 14.11 16.56 14C16.31 13.86 15.09 13.26 14.87 13.18C14.64 13.1 14.5 13.06 14.31 13.3C14.15 13.55 13.67 14.11 13.53 14.27C13.38 14.44 13.24 14.46 13 14.34C12.74 14.21 11.94 13.95 11 13.11C10.26 12.45 9.77 11.64 9.62 11.39C9.5 11.15 9.61 11 9.73 10.89C9.84 10.78 10 10.6 10.1 10.45C10.23 10.31 10.27 10.2 10.35 10.04C10.43 9.87 10.39 9.73 10.33 9.61C10.27 9.5 9.77001 8.26 9.56001 7.77C9.36001 7.29 9.16 7.35 9 7.34C8.86 7.34 8.7 7.33 8.53 7.33Z" />
  </symbol>
</svg>
