<svg width="14" height="14" viewBox="0 0 14 14" fill="none" xmlns="http://www.w3.org/2000/svg"><path d="M7 0c.27 0 .488.219.488.488v.652a.488.488 0 11-.976 0V.488C6.512.218 6.73 0 7 0z" fill="#fff"/><path fill-rule="evenodd" clip-rule="evenodd" d="M3.256 7a3.744 3.744 0 117.488 0 3.744 3.744 0 01-7.488 0zM7 4.233a2.767 2.767 0 100 5.534 2.767 2.767 0 000-5.534z" fill="#fff"/><path d="M2.74 2.05a.488.488 0 00-.69.69l.46.461a.488.488 0 00.691-.69l-.46-.46zM14 7c0 .27-.219.488-.488.488h-.652a.488.488 0 110-.976h.652c.27 0 .488.218.488.488zm-2.05-4.26a.488.488 0 10-.69-.69l-.461.46a.488.488 0 00.69.691l.46-.46zM7 12.372c.27 0 .488.219.488.489v.65a.488.488 0 01-.976 0v-.65c0-.27.218-.489.488-.489zm4.49-1.573a.488.488 0 10-.691.69l.46.46a.488.488 0 10.69-.69l-.46-.46zM1.628 7c0 .27-.219.488-.488.488H.488a.488.488 0 110-.976h.652c.27 0 .488.218.488.488zm1.573 4.49a.488.488 0 00-.69-.691l-.46.46a.488.488 0 10.69.69l.46-.46z" fill="#fff"/></svg>