<svg width="12" height="12" viewBox="0 0 12 12" fill="none" xmlns="http://www.w3.org/2000/svg">
<path fill-rule="evenodd" clip-rule="evenodd" d="M5.65965 1.04086C3.07295 1.22156 1.03074 3.37279 1.03074 6C1.03074 8.74564 3.26122 10.9714 6.01266 10.9714C8.21699 10.9714 10.0873 9.54253 10.7437 7.56252C10.2385 7.77076 9.68493 7.88571 9.10489 7.88571C6.73296 7.88571 4.81013 5.96693 4.81013 3.6C4.81013 2.64059 5.1263 1.7548 5.65965 1.04086ZM0 6C0 2.68629 2.69196 0 6.01266 0C6.32162 0 6.62546 0.0232979 6.92243 0.0683102C7.12787 0.0994482 7.29447 0.250652 7.34496 0.451791C7.39545 0.65293 7.31996 0.864653 7.1535 0.98876C6.35571 1.58355 5.84087 2.53171 5.84087 3.6C5.84087 5.39887 7.30222 6.85714 9.10489 6.85714C9.88429 6.85714 10.5986 6.58519 11.1599 6.13072C11.3211 6.00014 11.5452 5.9789 11.7282 6.07687C11.9113 6.17484 12.0175 6.37285 11.9976 6.57916C11.7053 9.62139 9.13767 12 6.01266 12C2.69196 12 0 9.31371 0 6Z" fill="white"/>
</svg>
