<svg xmlns="http://www.w3.org/2000/svg"><symbol id="logo" viewBox="0 0 128 39"><path fill-rule="evenodd" clip-rule="evenodd" d="M31.552 26.68c.694.347 1.507.52 2.44.52.947 0 1.76-.173 2.44-.52.68-.36 1.2-.86 1.56-1.5.374-.653.56-1.42.56-2.3V16.5c0-.867-.186-1.62-.56-2.26a3.609 3.609 0 00-1.56-1.5c-.68-.36-1.493-.54-2.44-.54-.933 0-1.746.18-2.44.54a3.731 3.731 0 00-1.58 1.5c-.36.64-.54 1.4-.54 2.28v6.36c0 .88.18 1.647.54 2.3.374.64.9 1.14 1.58 1.5zm3.98-2.22c-.346.36-.86.54-1.54.54-.666 0-1.18-.18-1.54-.54-.346-.373-.52-.9-.52-1.58v-6.36c0-.693.174-1.22.52-1.58.347-.36.86-.54 1.54-.54s1.194.18 1.54.54c.347.36.52.887.52 1.58v6.36c0 .68-.173 1.207-.52 1.58z"/><path d="M18.06 12.4V27h8.7v-2.32h-6.2V12.4h-2.5z"/><path fill-rule="evenodd" clip-rule="evenodd" d="M41.504 27V12.4h4.62c.974 0 1.814.18 2.52.54.72.36 1.28.867 1.68 1.52.4.64.6 1.4.6 2.28 0 .96-.246 1.807-.74 2.54a3.908 3.908 0 01-1.96 1.56l2.9 6.16h-2.8l-2.54-5.8h-1.78V27h-2.5zm2.5-8h2.12c.707 0 1.26-.193 1.66-.58.4-.387.6-.92.6-1.6 0-.693-.2-1.233-.6-1.62-.4-.4-.953-.6-1.66-.6h-2.12V19z"/><path d="M55.417 26.7c.733.333 1.6.5 2.6.5.973 0 1.82-.173 2.54-.52.72-.347 1.28-.833 1.68-1.46.4-.64.6-1.373.6-2.2 0-1.107-.307-2.033-.92-2.78-.614-.76-1.5-1.287-2.66-1.58l-1.74-.48c-.52-.147-.92-.393-1.2-.74-.267-.36-.4-.793-.4-1.3 0-.56.18-.993.54-1.3.36-.307.866-.46 1.52-.46.68 0 1.206.167 1.58.5.373.32.56.767.56 1.34h2.5c-.014-1.227-.434-2.2-1.26-2.92-.827-.733-1.947-1.1-3.36-1.1-.934 0-1.747.167-2.44.5a3.717 3.717 0 00-1.58 1.42c-.374.613-.56 1.333-.56 2.16 0 1.08.306 2 .92 2.76.626.76 1.513 1.287 2.66 1.58l1.68.46c.533.133.94.387 1.22.76.293.36.44.787.44 1.28 0 .587-.207 1.047-.62 1.38-.4.333-.96.5-1.68.5-.747 0-1.34-.167-1.78-.5-.427-.347-.64-.82-.64-1.42h-2.5c.013.84.213 1.573.6 2.2.4.613.966 1.087 1.7 1.42z"/><path fill-rule="evenodd" clip-rule="evenodd" d="M64.669 27l3.68-14.6h3.22l3.7 14.6h-2.56l-.8-3.54h-3.88l-.8 3.54h-2.56zm6.78-5.58l-.88-3.92a98.214 98.214 0 01-.38-1.76 39.87 39.87 0 01-.22-1.16c-.04.24-.113.627-.22 1.16-.093.52-.22 1.1-.38 1.74l-.88 3.94h2.96z"/><path d="M78.021 12.4V27h8.7v-2.32h-6.2V12.4h-2.5zM89.753 27v-2.2h2.94V14.6h-2.94v-2.2h8.4v2.2h-2.94v10.2h2.94V27h-8.4z"/><path fill-rule="evenodd" clip-rule="evenodd" d="M103.505 26.68c.694.347 1.507.52 2.44.52.947 0 1.76-.173 2.44-.52.68-.36 1.2-.86 1.56-1.5.374-.653.56-1.42.56-2.3V16.5c0-.867-.186-1.62-.56-2.26a3.609 3.609 0 00-1.56-1.5c-.68-.36-1.493-.54-2.44-.54-.933 0-1.746.18-2.44.54a3.735 3.735 0 00-1.58 1.5c-.36.64-.54 1.4-.54 2.28v6.36c0 .88.18 1.647.54 2.3.374.64.9 1.14 1.58 1.5zm3.98-2.22c-.346.36-.86.54-1.54.54-.666 0-1.18-.18-1.54-.54-.346-.373-.52-.9-.52-1.58v-6.36c0-.693.174-1.22.52-1.58.347-.36.86-.54 1.54-.54s1.194.18 1.54.54c.347.36.52.887.52 1.58v6.36c0 .68-.173 1.207-.52 1.58z"/><path fill-rule="evenodd" clip-rule="evenodd" d="M0 39V0h128v39H0zM2 2h124v35H2V2z"/></symbol><symbol id="playstore-ic" viewBox="0 0 24 24"><path d="M3 20.5v-17c0-.59.34-1.11.84-1.35L13.69 12l-9.85 9.85c-.5-.25-.84-.76-.84-1.35zm13.81-5.38L6.05 21.34l8.49-8.49 2.27 2.27zm3.35-4.31c.34.27.59.69.59 1.19s-.22.9-.57 1.18l-2.29 1.32-2.5-2.5 2.5-2.5 2.27 1.31zM6.05 2.66l10.76 6.22-2.27 2.27-8.49-8.49z"/></symbol><symbol id="x-ic" viewBox="0 0 24 24"><path fill-rule="evenodd" clip-rule="evenodd" d="M4.012 20h1.394l5.458-6.207L15.204 20H20l-6.467-9.205L19.47 4h-1.418l-5.157 5.878L8.76 4H4l6.25 8.911L4.013 20zM5.923 5.046h2.152l9.99 13.966h-2.176L5.923 5.046z"/></symbol><symbol id="email-ic" viewBox="0 0 24 24"><path d="M20 8l-8 5-8-5V6l8 5 8-5m0-2H4c-1.11 0-2 .89-2 2v12a2 2 0 002 2h16a2 2 0 002-2V6a2 2 0 00-2-2z"/></symbol><symbol id="share-ic" viewBox="0 0 26 26"><path d="M17.875 17.42c-.823 0-1.56.325-2.123.834l-7.725-4.496c.055-.249.098-.498.098-.758s-.043-.51-.098-.758l7.638-4.453a3.236 3.236 0 004.508-.074 3.25 3.25 0 10-5.548-2.298c0 .26.043.509.098.758l-7.638 4.452a3.236 3.236 0 00-4.508.075 3.25 3.25 0 002.298 5.548c.856 0 1.625-.336 2.21-.877l7.713 4.495a3.08 3.08 0 00-.086.715 3.158 3.158 0 003.163 3.153 3.158 3.158 0 100-6.316z"/></symbol><symbol id="boosty-ic" viewBox="0 0 24 24"><path d="M4.51 13.751L7.833 3h5.103l-1.032 3.333c-.01.02-.02.04-.027.06L9.17 15.195h2.529A3262.59 3262.59 0 009.219 21c-4.665-.049-5.973-3.173-4.828-6.87l.12-.379zM9.235 21l6.15-8.28h-2.609l2.27-5.304c3.897.381 5.723 3.247 4.65 6.713C18.542 17.857 13.876 21 9.33 21h-.095z"/></symbol><symbol id="donation-ic" viewBox="0 0 24 24"><path fill-rule="evenodd" clip-rule="evenodd" d="M7.54 17.593L7.265 21l3.616-3.407 4.025-.016c.23 0 .449-.092.613-.254l3.753-3.722a.906.906 0 00.264-.567l.46-5.418a.91.91 0 00-.203-.656l-3-3.639A.875.875 0 0016.116 3h-9.15a.89.89 0 00-.881.822L5.003 16.616a.893.893 0 00.881.977H7.54zm.958-11.044l-.624 7.353a.894.894 0 00.88.977h5.21a.88.88 0 00.611-.25l2.135-2.085a.907.907 0 00.268-.562l.309-3.25a.911.911 0 00-.208-.67l-1.695-2.02a.876.876 0 00-.671-.315H9.378a.89.89 0 00-.88.822zm2.629 6.545a.357.357 0 00.352.393h.994a.355.355 0 00.352-.327l.077-.84a.357.357 0 00-.352-.393h-.994a.355.355 0 00-.352.327l-.077.84zm.513-5.606a.356.356 0 01.351-.327h.995c.208 0 .372.182.352.393l-.316 3.451a.356.356 0 01-.352.327h-.994a.357.357 0 01-.352-.394l.316-3.45z"/></symbol><symbol id="rss-ic" viewBox="0 0 24 24"><path d="M6.18 15.64a2.18 2.18 0 012.18 2.18C8.36 19 7.38 20 6.18 20 5 20 4 19 4 17.82a2.18 2.18 0 012.18-2.18zM4 4.44A15.56 15.56 0 0119.56 20h-2.83A12.731 12.731 0 004 7.27V4.44zm0 5.66a9.9 9.9 0 019.9 9.9h-2.83A7.07 7.07 0 004 12.93V10.1z"/></symbol><symbol id="pinterest-ic" viewBox="0 0 24 24"><path fill-rule="evenodd" clip-rule="evenodd" d="M7.827 21.089A10.006 10.006 0 012 12C2 6.481 6.481 2 12 2s10 4.481 10 10-4.481 10-10 10c-.781 0-1.541-.09-2.27-.259l.666-2.926A7.006 7.006 0 0019 12c0-3.863-3.137-7-7-7a7.004 7.004 0 00-6.082 10.466 1 1 0 001.737-.992A4.972 4.972 0 017 12c0-2.76 2.24-5 5-5s5 2.24 5 5a5.002 5.002 0 01-6.16 4.865l1.07-4.698a1.657 1.657 0 10-1.95-.444l-2.133 9.366z"/></symbol><symbol id="telegram-ic" viewBox="0 0 40 40"><path fill-rule="evenodd" clip-rule="evenodd" d="M29.047 30.492l.001-.003.023-.057L33 10.485v-.064c0-.497-.182-.931-.58-1.191-.347-.228-.746-.244-1.026-.223a3.446 3.446 0 00-.769.159 4.196 4.196 0 00-.314.115l-.017.007-21.908 8.653-.006.002a2.878 2.878 0 00-.195.081 2.96 2.96 0 00-.448.252c-.281.194-.817.654-.727 1.382.075.604.488.987.767 1.185a2.709 2.709 0 00.57.309l.014.005.009.003 3.833 1.3c-.013.242.01.489.074.732l1.92 7.333A1.968 1.968 0 0016.1 32c.8 0 1.51-.488 1.812-1.216l2.998-3.227 5.148 3.974.073.032c.468.206.905.271 1.304.216.4-.055.716-.223.954-.415a2.293 2.293 0 00.644-.837l.01-.023.004-.009.001-.003zm-14.87-7.804a.397.397 0 01.17-.435l13-8.313s.765-.467.738 0c0 0 .136.082-.273.467-.389.366-9.266 8.996-10.164 9.869a.367.367 0 00-.101.178l-1.45 5.567-1.92-7.333z"/></symbol><symbol id="calendar-ic" viewBox="0 0 24 24"><path d="M19 19H5V8h14m-3-7v2H8V1H6v2H5c-1.11 0-2 .89-2 2v14a2 2 0 002 2h14a2 2 0 002-2V5a2 2 0 00-2-2h-1V1m-1 11h-5v5h5v-5z"/></symbol><symbol id="message-ic" viewBox="0 0 24 24"><path d="M18 8H6V6h12v2zm0 3H6V9h12v2zm0 3H6v-2h12v2zm4-10a2 2 0 00-2-2H4a2 2 0 00-2 2v12a2 2 0 002 2h14l4 4V4z"/></symbol><symbol id="landscape-ic" viewBox="0 0 40 40"><path d="M31.667 28.333H8.333V11.667h23.334m0-3.334H8.333A3.333 3.333 0 005 11.667v16.666a3.333 3.333 0 003.333 3.334h23.334A3.333 3.333 0 0035 28.333V11.667c0-1.85-1.5-3.334-3.333-3.334z"/></symbol><symbol id="portrait-ic" viewBox="0 0 40 40"><path d="M28.333 31.667H11.667V8.333h16.666m0-3.333H11.667a3.333 3.333 0 00-3.334 3.333v23.334A3.333 3.333 0 0011.667 35h16.666a3.333 3.333 0 003.334-3.333V8.333c0-1.85-1.5-3.333-3.334-3.333z"/></symbol><symbol id="dropdown-ic" viewBox="0 0 15 9"><path fill-rule="evenodd" clip-rule="evenodd" d="M.265.822A1 1 0 011.678.765L7.5 6.14 13.322.765a1 1 0 011.356 1.47l-6.5 6a1 1 0 01-1.356 0l-6.5-6A1 1 0 01.265.822z"/></symbol><symbol id="whatsapp-ic" viewBox="0 0 24 24"><path fill-rule="evenodd" clip-rule="evenodd" d="M12.04 2c-5.46 0-9.91 4.45-9.91 9.91 0 1.75.46 3.45 1.32 4.95l-.718 2.635a1.5 1.5 0 001.829 1.845l2.739-.72c1.45.79 3.08 1.21 4.74 1.21 5.46 0 9.91-4.45 9.91-9.91 0-2.65-1.03-5.14-2.9-7.01A9.816 9.816 0 0012.04 2zM8.53 7.33c-.16 0-.43.06-.66.31-.22.25-.87.86-.87 2.07 0 1.22.89 2.39 1 2.56.14.17 1.76 2.67 4.25 3.73.59.27 1.05.42 1.41.53.59.19 1.13.16 1.56.1.48-.07 1.46-.6 1.67-1.18.21-.58.21-1.07.15-1.18-.07-.1-.23-.16-.48-.27-.25-.14-1.47-.74-1.69-.82-.23-.08-.37-.12-.56.12-.16.25-.64.81-.78.97-.15.17-.29.19-.53.07-.26-.13-1.06-.39-2-1.23-.74-.66-1.23-1.47-1.38-1.72-.12-.24-.01-.39.11-.5.11-.11.27-.29.37-.44.13-.14.17-.25.25-.41.08-.17.04-.31-.02-.43-.06-.11-.56-1.35-.77-1.84-.2-.48-.4-.42-.56-.43-.14 0-.3-.01-.47-.01z"/></symbol><symbol id="tumblr-ic" viewBox="0 0 40 40"><path fill-rule="evenodd" clip-rule="evenodd" d="M20 34c7.732 0 14-6.268 14-14S27.732 6 20 6 6 12.268 6 20s6.268 14 14 14zm-5.104-15.458V16.5c1.142-.51 3.427-2.188 3.427-4.813h2.114v4.376h4.23v2.479h-4.23l-.02 4.187c-.025.778.37 2 2.062 2 1.167 0 2.021-.229 2.625-.729v3.656c-.68.219-2.45.657-4.083.657-2.042 0-3.938-.803-3.938-3.355v-6.416h-2.187z"/></symbol><symbol id="viber-ic" viewBox="0 0 40 40"><path fill-rule="evenodd" clip-rule="evenodd" d="M13.29 30.037v2.92c0 .421.248.802.628.964a.998.998 0 001.109-.227l3.055-3.135c.702-.008 1.352-.032 1.918-.032 5.871 0 13 0 13-12.048C33 6.86 26.29 6 20 6 7 6 7 12.454 7 18.479c0 7.753 2.975 10.563 6.29 11.558zM30.764 18.48c0 3.953-.775 6.375-2.206 7.798-.981.976-2.236 1.422-3.557 1.666-1.632.301-3.37.29-5.001.29-1.191 0-2.775.12-4.41-.068-1.31-.15-2.676-.494-3.79-1.446-1.602-1.368-2.564-3.88-2.564-8.24 0-2.534-.15-5.186 1.217-7.177C11.803 9.336 14.6 8.295 20 8.295c3.153 0 6.49.044 8.609 2.348 1.4 1.522 2.155 3.986 2.155 7.836zm-15.789-6.842c-1.004 0-2.008 1.13-2.17 1.362 0 0-.035.052-.05.079a1.262 1.262 0 00-.046.087c-1.393 3.29 3.303 8.241 3.885 8.84.454.464 4.275 4.22 7.351 4.22.486 0 .907-.1 1.296-.267 0 0 .062-.03.089-.047.026-.016.073-.052.073-.052.291-.233 1.748-1.562 1.23-2.758-.194-.465-1.781-2.193-3.788-2.526l-.152-.026-.108.026c-.097.034-.984.44-1.956 1.104-.324-.166-.972-.63-2.04-1.694-1.036-1.063-1.49-1.728-1.651-2.06.615-.997.984-1.968 1.016-2.035l.032-.1-.032-.165c-.323-2.06-2.04-3.656-2.493-3.888-.13-.067-.292-.1-.486-.1zm11.728 7.078a.343.343 0 01-.325.096.353.353 0 01-.257-.426c.364-1.577-.224-3.393-1.534-4.738-1.312-1.346-3.082-1.95-4.62-1.576a.344.344 0 01-.415-.263.36.36 0 01.26-.428c1.77-.43 3.787.245 5.265 1.763 1.479 1.516 2.137 3.586 1.718 5.402a.366.366 0 01-.093.17zm-1.863-.206a.343.343 0 01-.324.096.353.353 0 01-.257-.426c.241-1.044-.151-2.25-1.024-3.145-.874-.896-2.048-1.299-3.066-1.051a.344.344 0 01-.415-.264.36.36 0 01.26-.428c1.25-.303 2.672.171 3.712 1.239 1.04 1.067 1.503 2.527 1.207 3.809a.362.362 0 01-.093.17zm-1.627-.313a.329.329 0 01-.31.093.338.338 0 01-.246-.409c.126-.547-.092-1.208-.556-1.684-.463-.475-1.107-.698-1.64-.57a.329.329 0 01-.398-.251.344.344 0 01.249-.41c.763-.186 1.63.1 2.26.748.631.647.91 1.536.73 2.32a.344.344 0 01-.089.163z"/></symbol><symbol id="skype-ic" viewBox="0 0 40 40"><path fill-rule="evenodd" clip-rule="evenodd" d="M20 7.52c-.765 0-1.513.069-2.24.2A7.54 7.54 0 007.72 17.76c-.131.727-.2 1.475-.2 2.24 0 6.892 5.587 12.48 12.48 12.48.764 0 1.513-.069 2.24-.2a7.54 7.54 0 0010.04-10.04c.131-.727.2-1.476.2-2.24 0-6.893-5.588-12.48-12.48-12.48zm-4.426 10.987c.294.505.701.935 1.19 1.256.646.423 1.333.78 2.051 1.066.802.335 1.425.62 1.867.853.375.184.714.43 1.005.73.22.233.341.542.34.863a1.423 1.423 0 01-.544 1.18 2.567 2.567 0 01-1.616.43 4.284 4.284 0 01-1.71-.336 18.124 18.124 0 01-.868-.412 2.094 2.094 0 00-.957-.246c-.3-.013-.594.09-.82.289a1.029 1.029 0 00-.317.8 1.3 1.3 0 00.242.787c.197.25.452.449.744.578a8.346 8.346 0 003.61.683 7.45 7.45 0 002.65-.431 3.746 3.746 0 001.762-1.308 3.612 3.612 0 00.63-2.166 3.41 3.41 0 00-.455-1.796c-.32-.52-.75-.961-1.26-1.294a11.746 11.746 0 00-2.047-1.052 1.695 1.695 0 00-.237-.095 28.665 28.665 0 01-1.654-.73 2.981 2.981 0 01-.881-.63 1.186 1.186 0 01-.327-.83 1.313 1.313 0 01.63-1.179 2.876 2.876 0 011.578-.403c.425-.004.849.048 1.26.156.447.13.884.29 1.308.48.172.079.36.121.55.122a.978.978 0 00.739-.308 1.126 1.126 0 00.294-.81 1.17 1.17 0 00-.28-.777 2.243 2.243 0 00-.905-.578 6.03 6.03 0 00-1.156-.299 9.737 9.737 0 00-1.668-.128 7.395 7.395 0 00-2.507.422c-.74.25-1.4.691-1.914 1.28a3.117 3.117 0 00-.735 2.099 3.469 3.469 0 00.408 1.734z"/></symbol><symbol id="reddit-ic" viewBox="0 0 40 40"><path d="M35 20.23c0-1.765-1.476-3.198-3.295-3.198-.897 0-1.687.332-2.267.895-2.241-1.56-5.352-2.585-8.779-2.712l1.503-6.833 4.877.998c.052 1.203 1.08 2.175 2.346 2.175 1.292 0 2.346-1.024 2.346-2.277C31.731 8.024 30.677 7 29.385 7c-.923 0-1.714.512-2.083 1.28l-5.457-1.126a.674.674 0 00-.448.076c-.132.077-.21.205-.263.359l-1.661 7.626c-3.506.102-6.643 1.1-8.91 2.712a3.379 3.379 0 00-2.268-.895C6.476 17.032 5 18.465 5 20.23c0 1.305.79 2.406 1.95 2.918-.052.307-.078.64-.078.972 0 4.913 5.878 8.88 13.154 8.88s13.155-3.966 13.155-8.88c0-.333-.026-.64-.08-.947C34.184 22.661 35 21.535 35 20.23zm-22.54 2.278c0-1.254 1.055-2.278 2.347-2.278 1.291 0 2.346 1.024 2.346 2.278s-1.055 2.277-2.346 2.277c-1.292 0-2.347-1.023-2.347-2.277zm13.102 6.014c-1.608 1.56-4.666 1.663-5.562 1.663-.896 0-3.98-.128-5.562-1.663a.59.59 0 010-.845.634.634 0 01.87 0c1.001.973 3.163 1.33 4.718 1.33 1.556 0 3.691-.357 4.72-1.33a.634.634 0 01.87 0c.184.256.184.614-.054.845zm-.421-3.737c-1.292 0-2.347-1.023-2.347-2.277 0-1.254 1.055-2.278 2.347-2.278 1.291 0 2.346 1.024 2.346 2.278s-1.055 2.277-2.346 2.277z"/></symbol><symbol id="line-ic" viewBox="0 0 40 40"><path fill-rule="evenodd" clip-rule="evenodd" d="M30.136 26.452c-.264.27-.584.56-1.003.888-1.048.824-6.978 5.141-8.419 6.036-1.44.894-1.972.67-2.123.298-.097-.236.05-.68.229-1.22.104-.314.218-.66.301-1.016.228-.968.068-1.342-.91-1.49a2.346 2.346 0 01-.213-.043C11.215 29.106 6 24.31 6 18.511 6 12.154 12.268 7 20 7s14 5.154 14 11.511c0 3.079-1.47 5.875-3.864 7.94zm-16.128-5.47h-2.085v-4.954c0-.281-.066-.491-.196-.629a.675.675 0 00-.513-.206.65.65 0 00-.503.209c-.128.139-.192.348-.192.626v5.242c0 .297.067.512.201.646.134.133.354.2.66.2h2.628c.23 0 .405-.053.525-.156.12-.104.18-.24.18-.407 0-.164-.061-.3-.183-.408-.12-.109-.295-.163-.522-.163zm1.71-5.58a.652.652 0 01.502-.21c.21 0 .382.07.513.207.13.138.196.348.196.63v5.362c0 .281-.066.492-.196.631a.671.671 0 01-.513.21.65.65 0 01-.499-.212c-.13-.14-.196-.35-.196-.63v-5.362c0-.278.065-.487.194-.626zm7.606-.21a.587.587 0 00-.465.198c-.116.131-.173.329-.173.592v4.048L20 16.02l-.22-.339a1.693 1.693 0 00-.208-.265.783.783 0 00-.236-.162.789.789 0 00-.324-.06c-.16 0-.31.044-.449.132a.752.752 0 00-.297.34 1.46 1.46 0 00-.076.526v5.25c0 .258.06.453.18.588.12.135.278.202.477.202.192 0 .35-.067.472-.2.123-.133.185-.33.185-.59v-3.988l2.62 3.966c.075.108.15.214.227.318.075.103.157.194.245.271a.862.862 0 00.284.17c.1.035.214.053.34.053.504 0 .756-.299.756-.896v-5.353c0-.263-.058-.46-.175-.592a.605.605 0 00-.477-.197zm3.01 5.746h2.48c.22 0 .387.05.499.15a.517.517 0 01.168.403.503.503 0 01-.168.392c-.112.1-.278.15-.499.15H25.79c-.305 0-.525-.066-.66-.199-.133-.133-.2-.348-.2-.645v-5.117c0-.198.03-.36.09-.485a.552.552 0 01.281-.274c.128-.057.29-.086.49-.086h2.915c.223 0 .39.05.498.147a.49.49 0 01.163.383c0 .16-.054.29-.163.387-.108.098-.275.147-.498.147h-2.372v1.671h2.121c.215 0 .374.047.48.142a.474.474 0 01.158.373.497.497 0 01-.156.379c-.104.097-.264.146-.482.146h-2.121v1.936z"/></symbol></svg>